<?xml version="1.0" encoding="UTF-8"?><svg xmlns="http://www.w3.org/2000/svg" width="256px" height="64px" version="1.1" shape-rendering="geometricPrecision" text-rendering="geometricPrecision" image-rendering="optimizeQuality" fill-rule="evenodd" clip-rule="evenodd"
viewBox="0 0 256 64"><path fill="none" fill-rule="nonzero" stroke="white" stroke-width="4" stroke-miterlimit="22.9256" d="M5.666 31.915c-0.192,-0.032 -0.343,-0.112 -0.455,-0.241 -0.112,-0.127 -0.168,-0.384 -0.168,-0.768l0 -2.639c0,-0.224 0.064,-0.392 0.192,-0.504 0.127,-0.112 0.336,-0.216 0.623,-0.313l15.841 -7.199c0.576,-0.256 0.951,-0.336 1.128,-0.241 0.175,0.097 0.265,0.273 0.265,0.528l0 3.264c0,0.129 -0.081,0.265 -0.241,0.408 -0.16,0.145 -0.4,0.282 -0.719,0.409l-11.185 5.135 11.088 4.992c0.384,0.192 0.656,0.352 0.816,0.481 0.16,0.128 0.241,0.304 0.241,0.528l0 3.072c0,0.641 -0.384,0.799 -1.152,0.48l-16.274 -7.392zm115.969 7.439c-0.384,0.161 -0.663,0.201 -0.839,0.121 -0.177,-0.08 -0.264,-0.279 -0.264,-0.6l0 -3.072c0,-0.224 0.08,-0.401 0.24,-0.528 0.16,-0.128 0.432,-0.288 0.816,-0.48l11.04 -4.992 -11.136 -5.136c-0.64,-0.289 -0.96,-0.576 -0.96,-0.865l0 -3.264c0,-0.224 0.087,-0.391 0.264,-0.503 0.176,-0.112 0.535,-0.025 1.08,0.264l15.887 7.151c0.257,0.129 0.457,0.25 0.601,0.361 0.143,0.112 0.216,0.28 0.216,0.504l0 2.64c0,0.352 -0.064,0.592 -0.192,0.719 -0.129,0.129 -0.288,0.225 -0.48,0.289l-16.273 7.391z"/><path fill="#FF6633" fill-rule="nonzero" d="M5.666 31.915c-0.192,-0.032 -0.343,-0.112 -0.455,-0.241 -0.112,-0.127 -0.168,-0.384 -0.168,-0.768l0 -2.639c0,-0.224 0.064,-0.392 0.192,-0.504 0.127,-0.112 0.336,-0.216 0.623,-0.313l15.841 -7.199c0.576,-0.256 0.951,-0.336 1.128,-0.241 0.175,0.097 0.265,0.273 0.265,0.528l0 3.264c0,0.129 -0.081,0.265 -0.241,0.408 -0.16,0.145 -0.4,0.282 -0.719,0.409l-11.185 5.135 11.088 4.992c0.384,0.192 0.656,0.352 0.816,0.481 0.16,0.128 0.241,0.304 0.241,0.528l0 3.072c0,0.641 -0.384,0.799 -1.152,0.48l-16.274 -7.392zm115.969 7.439c-0.384,0.161 -0.663,0.201 -0.839,0.121 -0.177,-0.08 -0.264,-0.279 -0.264,-0.6l0 -3.072c0,-0.224 0.08,-0.401 0.24,-0.528 0.16,-0.128 0.432,-0.288 0.816,-0.48l11.04 -4.992 -11.136 -5.136c-0.64,-0.289 -0.96,-0.576 -0.96,-0.865l0 -3.264c0,-0.224 0.087,-0.391 0.264,-0.503 0.176,-0.112 0.535,-0.025 1.08,0.264l15.887 7.151c0.257,0.129 0.457,0.25 0.601,0.361 0.143,0.112 0.216,0.28 0.216,0.504l0 2.64c0,0.352 -0.064,0.592 -0.192,0.719 -0.129,0.129 -0.288,0.225 -0.48,0.289l-16.273 7.391z"/><path fill="none" fill-rule="nonzero" stroke="white" stroke-width="4" stroke-miterlimit="22.9256" d="M22.227 55.915c-1.089,0 -1.913,-0.088 -2.472,-0.263 -0.561,-0.177 -0.824,-0.265 -0.792,-0.265 -0.321,-0.16 -0.416,-0.464 -0.289,-0.911 0.033,-0.129 0.097,-0.409 0.192,-0.841 0.097,-0.432 0.184,-0.863 0.265,-1.296 0.08,-0.432 0.136,-0.695 0.167,-0.792 0.065,-0.255 0.136,-0.384 0.217,-0.384 0.08,0 0.199,0.032 0.359,0.097 0.481,0.192 0.904,0.304 1.273,0.335 0.368,0.032 0.808,0.049 1.32,0.049 1.247,0 2.288,-0.393 3.121,-1.176 0.831,-0.785 1.422,-2.056 1.774,-3.816 0.416,-2.209 0.753,-4.121 1.009,-5.738 0.255,-1.616 0.488,-3.118 0.695,-4.511 0.209,-1.392 0.44,-2.816 0.697,-4.272 0.256,-1.456 0.576,-3.112 0.96,-4.968 0.064,-0.321 -0.065,-0.481 -0.384,-0.481 -0.352,0 -0.704,0 -1.057,0 -0.352,0 -0.687,0 -1.006,0 -0.192,0 -0.338,-0.032 -0.433,-0.095 -0.097,-0.064 -0.128,-0.256 -0.097,-0.576 0.161,-0.513 0.297,-1.024 0.409,-1.536 0.112,-0.513 0.216,-1.04 0.313,-1.584 0.063,-0.384 0.158,-0.601 0.287,-0.648 0.128,-0.048 0.335,-0.072 0.624,-0.072 0.8,0 1.288,0 1.464,0 0.177,0 0.376,0 0.6,0 0.255,0 0.401,-0.129 0.432,-0.384 0.224,-1.376 0.567,-2.72 1.031,-4.032 0.464,-1.312 1.225,-2.56 2.282,-3.745 0.895,-0.992 2.112,-1.799 3.648,-2.423 1.536,-0.625 3.422,-0.936 5.663,-0.936 1.024,0 1.92,0.152 2.688,0.456 0.768,0.304 1.344,0.567 1.728,0.791 0.352,0.192 0.552,0.369 0.6,0.529 0.049,0.16 0.008,0.352 -0.119,0.576 -0.225,0.448 -0.464,0.895 -0.721,1.344 -0.256,0.448 -0.496,0.895 -0.72,1.344 -0.192,0.352 -0.352,0.552 -0.479,0.6 -0.129,0.047 -0.272,0.008 -0.433,-0.121 -0.384,-0.287 -0.911,-0.544 -1.584,-0.768 -0.671,-0.223 -1.392,-0.335 -2.16,-0.335 -1.024,0 -1.92,0.28 -2.688,0.84 -0.768,0.56 -1.36,1.384 -1.775,2.472 -0.192,0.448 -0.369,1.016 -0.529,1.704 -0.161,0.688 -0.288,1.24 -0.384,1.656 -0.064,0.288 0.031,0.432 0.288,0.432 0.545,0 1.344,0 2.4,0 1.056,0 2.257,0 3.601,0 0.223,0 0.367,0.039 0.431,0.119 0.065,0.08 0.065,0.313 0,0.697 -0.032,0.161 -0.12,0.576 -0.263,1.248 -0.146,0.672 -0.282,1.263 -0.409,1.776 -0.031,0.287 -0.112,0.472 -0.24,0.552 -0.129,0.08 -0.336,0.119 -0.624,0.119 -0.895,0 -1.6,0 -2.112,0 -0.511,0 -1.031,0 -1.561,0 -0.527,0 -1.239,0 -2.134,0 -0.065,0 -0.161,0.033 -0.289,0.097 -0.129,0.063 -0.209,0.175 -0.24,0.336 0,0.128 -0.04,0.376 -0.12,0.743 -0.08,0.369 -0.16,0.737 -0.24,1.106 -0.08,0.367 -0.136,0.631 -0.168,0.79 -0.287,1.409 -0.537,2.697 -0.744,3.864 -0.209,1.169 -0.408,2.353 -0.6,3.553 -0.192,1.201 -0.408,2.552 -0.649,4.056 -0.239,1.505 -0.551,3.296 -0.935,5.376 -0.511,2.976 -1.617,5.272 -3.311,6.888 -1.697,1.616 -4.289,2.424 -7.777,2.424zm29.952 -10.704c-2.112,0 -3.792,-0.296 -5.04,-0.887 -1.248,-0.593 -2.144,-1.434 -2.688,-2.521 -0.545,-1.088 -0.815,-2.344 -0.815,-3.769 0,-1.424 0.175,-2.982 0.527,-4.679 0.48,-2.208 1.233,-4.184 2.256,-5.928 1.024,-1.744 2.408,-3.12 4.151,-4.128 1.745,-1.009 3.93,-1.512 6.553,-1.512 2.656,0 4.64,0.503 5.952,1.512 1.312,1.008 2.112,2.384 2.401,4.128 0.287,1.744 0.192,3.72 -0.289,5.928 -0.479,2.239 -1.199,4.249 -2.159,6.023 -0.96,1.777 -2.313,3.193 -4.056,4.249 -1.745,1.056 -4.008,1.584 -6.793,1.584zm0.912 -4.705c1.567,0 2.8,-0.607 3.696,-1.823 0.897,-1.215 1.584,-2.928 2.064,-5.136 0.449,-2.208 0.449,-3.88 0,-5.016 -0.448,-1.137 -1.408,-1.704 -2.88,-1.704 -1.44,0 -2.623,0.567 -3.552,1.704 -0.928,1.136 -1.616,2.808 -2.063,5.016 -0.481,2.239 -0.529,3.96 -0.145,5.16 0.384,1.201 1.344,1.799 2.88,1.799zm26.112 -18.527c2.401,0 4.336,0.352 5.808,1.055 0.319,0.129 0.489,0.257 0.504,0.384 0.016,0.129 -0.024,0.306 -0.12,0.529l-1.487 2.976c-0.129,0.257 -0.25,0.408 -0.362,0.456 -0.112,0.048 -0.294,0.024 -0.551,-0.072 -0.511,-0.161 -1.097,-0.28 -1.753,-0.36 -0.656,-0.08 -1.159,-0.12 -1.511,-0.12 -0.511,0 -0.944,0.024 -1.296,0.071 -0.352,0.049 -0.64,0.105 -0.863,0.168 -0.226,0.065 -0.418,0.129 -0.576,0.192 -0.161,0.097 -0.313,0.209 -0.457,0.337 -0.144,0.127 -0.265,0.416 -0.36,0.864l-3.312 15.36c-0.095,0.449 -0.216,0.728 -0.36,0.84 -0.144,0.112 -0.36,0.168 -0.649,0.168l-4.703 0c-0.16,0 -0.296,-0.048 -0.408,-0.144 -0.112,-0.096 -0.121,-0.32 -0.024,-0.672l4.129 -19.2c0.095,-0.511 0.214,-0.84 0.359,-0.985 0.144,-0.143 0.392,-0.294 0.744,-0.455 1.055,-0.449 2.272,-0.792 3.648,-1.032 1.376,-0.241 2.576,-0.36 3.6,-0.36zm29.184 4.8c-0.416,0 -0.945,0.095 -1.584,0.287 -0.64,0.192 -1.024,0.576 -1.152,1.152l-0.241 1.057c-0.447,2.207 -0.895,4.336 -1.344,6.384 -0.447,2.047 -0.824,3.809 -1.127,5.28 -0.304,1.472 -0.521,2.481 -0.648,3.023 -0.033,0.192 -0.096,0.384 -0.192,0.576 -0.096,0.192 -0.257,0.289 -0.48,0.289l-5.376 0c-0.224,0 -0.304,-0.112 -0.241,-0.336l2.545 -11.808c0.223,-1.152 0.328,-2.193 0.311,-3.121 -0.015,-0.927 -0.328,-1.663 -0.936,-2.207 -0.384,-0.321 -0.824,-0.496 -1.32,-0.528 -0.495,-0.031 -0.984,0 -1.463,0.096 -0.192,0 -0.488,0.04 -0.889,0.12 -0.399,0.081 -0.632,0.329 -0.695,0.744l-3.456 16.224c-0.032,0.16 -0.105,0.335 -0.217,0.527 -0.111,0.192 -0.231,0.289 -0.359,0.289l-5.041 0c-0.095,0 -0.231,-0.039 -0.408,-0.119 -0.175,-0.08 -0.231,-0.248 -0.168,-0.505l4.224 -19.68c0.065,-0.288 0.192,-0.529 0.384,-0.721 0.192,-0.192 0.496,-0.351 0.913,-0.479 0.64,-0.192 1.4,-0.392 2.28,-0.6 0.88,-0.207 1.736,-0.384 2.567,-0.528 0.833,-0.144 1.456,-0.216 1.873,-0.216 2.079,0 3.648,0.184 4.704,0.552 1.056,0.369 1.951,0.904 2.688,1.608 0.736,-0.48 1.44,-0.872 2.112,-1.176 0.672,-0.304 1.36,-0.544 2.063,-0.72 0.705,-0.176 1.441,-0.264 2.209,-0.264 2.528,0 4.368,0.488 5.52,1.463 1.152,0.977 1.825,2.28 2.017,3.913 0.192,1.631 0.063,3.456 -0.384,5.471 -0.353,1.633 -0.697,3.089 -1.033,4.369 -0.336,1.279 -0.688,2.504 -1.057,3.673 -0.367,1.167 -0.775,2.406 -1.223,3.719 -0.065,0.16 -0.224,0.24 -0.481,0.24l-5.135 0c-0.224,0 -0.353,-0.056 -0.384,-0.168 -0.032,-0.112 0.016,-0.36 0.143,-0.744 0.289,-0.928 0.601,-2.007 0.936,-3.239 0.337,-1.233 0.673,-2.552 1.009,-3.961 0.335,-1.408 0.632,-2.769 0.889,-4.081 0.095,-0.511 0.175,-1.094 0.238,-1.75 0.065,-0.657 0.041,-1.298 -0.071,-1.92 -0.112,-0.625 -0.359,-1.145 -0.743,-1.561 -0.384,-0.415 -0.977,-0.624 -1.777,-0.624z"/><path fill="#FF0066" fill-rule="nonzero" d="M22.227 55.915c-1.089,0 -1.913,-0.088 -2.472,-0.263 -0.561,-0.177 -0.824,-0.265 -0.792,-0.265 -0.321,-0.16 -0.416,-0.464 -0.289,-0.911 0.033,-0.129 0.097,-0.409 0.192,-0.841 0.097,-0.432 0.184,-0.863 0.265,-1.296 0.08,-0.432 0.136,-0.695 0.167,-0.792 0.065,-0.255 0.136,-0.384 0.217,-0.384 0.08,0 0.199,0.032 0.359,0.097 0.481,0.192 0.904,0.304 1.273,0.335 0.368,0.032 0.808,0.049 1.32,0.049 1.247,0 2.288,-0.393 3.121,-1.176 0.831,-0.785 1.422,-2.056 1.774,-3.816 0.416,-2.209 0.753,-4.121 1.009,-5.738 0.255,-1.616 0.488,-3.118 0.695,-4.511 0.209,-1.392 0.44,-2.816 0.697,-4.272 0.256,-1.456 0.576,-3.112 0.96,-4.968 0.064,-0.321 -0.065,-0.481 -0.384,-0.481 -0.352,0 -0.704,0 -1.057,0 -0.352,0 -0.687,0 -1.006,0 -0.192,0 -0.338,-0.032 -0.433,-0.095 -0.097,-0.064 -0.128,-0.256 -0.097,-0.576 0.161,-0.513 0.297,-1.024 0.409,-1.536 0.112,-0.513 0.216,-1.04 0.313,-1.584 0.063,-0.384 0.158,-0.601 0.287,-0.648 0.128,-0.048 0.335,-0.072 0.624,-0.072 0.8,0 1.288,0 1.464,0 0.177,0 0.376,0 0.6,0 0.255,0 0.401,-0.129 0.432,-0.384 0.224,-1.376 0.567,-2.72 1.031,-4.032 0.464,-1.312 1.225,-2.56 2.282,-3.745 0.895,-0.992 2.112,-1.799 3.648,-2.423 1.536,-0.625 3.422,-0.936 5.663,-0.936 1.024,0 1.92,0.152 2.688,0.456 0.768,0.304 1.344,0.567 1.728,0.791 0.352,0.192 0.552,0.369 0.6,0.529 0.049,0.16 0.008,0.352 -0.119,0.576 -0.225,0.448 -0.464,0.895 -0.721,1.344 -0.256,0.448 -0.496,0.895 -0.72,1.344 -0.192,0.352 -0.352,0.552 -0.479,0.6 -0.129,0.047 -0.272,0.008 -0.433,-0.121 -0.384,-0.287 -0.911,-0.544 -1.584,-0.768 -0.671,-0.223 -1.392,-0.335 -2.16,-0.335 -1.024,0 -1.92,0.28 -2.688,0.84 -0.768,0.56 -1.36,1.384 -1.775,2.472 -0.192,0.448 -0.369,1.016 -0.529,1.704 -0.161,0.688 -0.288,1.24 -0.384,1.656 -0.064,0.288 0.031,0.432 0.288,0.432 0.545,0 1.344,0 2.4,0 1.056,0 2.257,0 3.601,0 0.223,0 0.367,0.039 0.431,0.119 0.065,0.08 0.065,0.313 0,0.697 -0.032,0.161 -0.12,0.576 -0.263,1.248 -0.146,0.672 -0.282,1.263 -0.409,1.776 -0.031,0.287 -0.112,0.472 -0.24,0.552 -0.129,0.08 -0.336,0.119 -0.624,0.119 -0.895,0 -1.6,0 -2.112,0 -0.511,0 -1.031,0 -1.561,0 -0.527,0 -1.239,0 -2.134,0 -0.065,0 -0.161,0.033 -0.289,0.097 -0.129,0.063 -0.209,0.175 -0.24,0.336 0,0.128 -0.04,0.376 -0.12,0.743 -0.08,0.369 -0.16,0.737 -0.24,1.106 -0.08,0.367 -0.136,0.631 -0.168,0.79 -0.287,1.409 -0.537,2.697 -0.744,3.864 -0.209,1.169 -0.408,2.353 -0.6,3.553 -0.192,1.201 -0.408,2.552 -0.649,4.056 -0.239,1.505 -0.551,3.296 -0.935,5.376 -0.511,2.976 -1.617,5.272 -3.311,6.888 -1.697,1.616 -4.289,2.424 -7.777,2.424zm29.952 -10.704c-2.112,0 -3.792,-0.296 -5.04,-0.887 -1.248,-0.593 -2.144,-1.434 -2.688,-2.521 -0.545,-1.088 -0.815,-2.344 -0.815,-3.769 0,-1.424 0.175,-2.982 0.527,-4.679 0.48,-2.208 1.233,-4.184 2.256,-5.928 1.024,-1.744 2.408,-3.12 4.151,-4.128 1.745,-1.009 3.93,-1.512 6.553,-1.512 2.656,0 4.64,0.503 5.952,1.512 1.312,1.008 2.112,2.384 2.401,4.128 0.287,1.744 0.192,3.72 -0.289,5.928 -0.479,2.239 -1.199,4.249 -2.159,6.023 -0.96,1.777 -2.313,3.193 -4.056,4.249 -1.745,1.056 -4.008,1.584 -6.793,1.584zm0.912 -4.705c1.567,0 2.8,-0.607 3.696,-1.823 0.897,-1.215 1.584,-2.928 2.064,-5.136 0.449,-2.208 0.449,-3.88 0,-5.016 -0.448,-1.137 -1.408,-1.704 -2.88,-1.704 -1.44,0 -2.623,0.567 -3.552,1.704 -0.928,1.136 -1.616,2.808 -2.063,5.016 -0.481,2.239 -0.529,3.96 -0.145,5.16 0.384,1.201 1.344,1.799 2.88,1.799zm26.112 -18.527c2.401,0 4.336,0.352 5.808,1.055 0.319,0.129 0.489,0.257 0.504,0.384 0.016,0.129 -0.024,0.306 -0.12,0.529l-1.487 2.976c-0.129,0.257 -0.25,0.408 -0.362,0.456 -0.112,0.048 -0.294,0.024 -0.551,-0.072 -0.511,-0.161 -1.097,-0.28 -1.753,-0.36 -0.656,-0.08 -1.159,-0.12 -1.511,-0.12 -0.511,0 -0.944,0.024 -1.296,0.071 -0.352,0.049 -0.64,0.105 -0.863,0.168 -0.226,0.065 -0.418,0.129 -0.576,0.192 -0.161,0.097 -0.313,0.209 -0.457,0.337 -0.144,0.127 -0.265,0.416 -0.36,0.864l-3.312 15.36c-0.095,0.449 -0.216,0.728 -0.36,0.84 -0.144,0.112 -0.36,0.168 -0.649,0.168l-4.703 0c-0.16,0 -0.296,-0.048 -0.408,-0.144 -0.112,-0.096 -0.121,-0.32 -0.024,-0.672l4.129 -19.2c0.095,-0.511 0.214,-0.84 0.359,-0.985 0.144,-0.143 0.392,-0.294 0.744,-0.455 1.055,-0.449 2.272,-0.792 3.648,-1.032 1.376,-0.241 2.576,-0.36 3.6,-0.36zm29.184 4.8c-0.416,0 -0.945,0.095 -1.584,0.287 -0.64,0.192 -1.024,0.576 -1.152,1.152l-0.241 1.057c-0.447,2.207 -0.895,4.336 -1.344,6.384 -0.447,2.047 -0.824,3.809 -1.127,5.28 -0.304,1.472 -0.521,2.481 -0.648,3.023 -0.033,0.192 -0.096,0.384 -0.192,0.576 -0.096,0.192 -0.257,0.289 -0.48,0.289l-5.376 0c-0.224,0 -0.304,-0.112 -0.241,-0.336l2.545 -11.808c0.223,-1.152 0.328,-2.193 0.311,-3.121 -0.015,-0.927 -0.328,-1.663 -0.936,-2.207 -0.384,-0.321 -0.824,-0.496 -1.32,-0.528 -0.495,-0.031 -0.984,0 -1.463,0.096 -0.192,0 -0.488,0.04 -0.889,0.12 -0.399,0.081 -0.632,0.329 -0.695,0.744l-3.456 16.224c-0.032,0.16 -0.105,0.335 -0.217,0.527 -0.111,0.192 -0.231,0.289 -0.359,0.289l-5.041 0c-0.095,0 -0.231,-0.039 -0.408,-0.119 -0.175,-0.08 -0.231,-0.248 -0.168,-0.505l4.224 -19.68c0.065,-0.288 0.192,-0.529 0.384,-0.721 0.192,-0.192 0.496,-0.351 0.913,-0.479 0.64,-0.192 1.4,-0.392 2.28,-0.6 0.88,-0.207 1.736,-0.384 2.567,-0.528 0.833,-0.144 1.456,-0.216 1.873,-0.216 2.079,0 3.648,0.184 4.704,0.552 1.056,0.369 1.951,0.904 2.688,1.608 0.736,-0.48 1.44,-0.872 2.112,-1.176 0.672,-0.304 1.36,-0.544 2.063,-0.72 0.705,-0.176 1.441,-0.264 2.209,-0.264 2.528,0 4.368,0.488 5.52,1.463 1.152,0.977 1.825,2.28 2.017,3.913 0.192,1.631 0.063,3.456 -0.384,5.471 -0.353,1.633 -0.697,3.089 -1.033,4.369 -0.336,1.279 -0.688,2.504 -1.057,3.673 -0.367,1.167 -0.775,2.406 -1.223,3.719 -0.065,0.16 -0.224,0.24 -0.481,0.24l-5.135 0c-0.224,0 -0.353,-0.056 -0.384,-0.168 -0.032,-0.112 0.016,-0.36 0.143,-0.744 0.289,-0.928 0.601,-2.007 0.936,-3.239 0.337,-1.233 0.673,-2.552 1.009,-3.961 0.335,-1.408 0.632,-2.769 0.889,-4.081 0.095,-0.511 0.175,-1.094 0.238,-1.75 0.065,-0.657 0.041,-1.298 -0.071,-1.92 -0.112,-0.625 -0.359,-1.145 -0.743,-1.561 -0.384,-0.415 -0.977,-0.624 -1.777,-0.624z"/><path fill="none" fill-rule="nonzero" stroke="white" stroke-width="4" stroke-miterlimit="22.9256" d="M169.852 44.827l-5.904 -9.576 -4.129 -5.305 -8.735 -13.679 7.753 0 5.135 8.208 4.103 5.424 9.408 14.928 -7.631 0zm-19.584 0l9.551 -14.881 4.153 -5.471 5.088 -8.208 7.633 0 -8.618 13.632 -4.127 5.352 -5.928 9.576 -7.752 0zm33.576 0l-0.023 -22.68 -8.185 0 -0.024 -5.88 23.521 0 0 5.88 -8.232 0 0.024 22.68 -7.081 0zm18.145 0l0 -28.008c1.327,-0.289 2.712,-0.512 4.151,-0.688 1.441,-0.16 2.977,-0.248 4.608,-0.248 4.144,0 7.264,0.792 9.361,2.36 2.096,1.575 3.143,3.945 3.143,7.095 0,2.049 -0.495,3.769 -1.487,5.162 -0.992,1.39 -2.377,2.44 -4.161,3.143 -1.784,0.704 -3.855,1.056 -6.207,1.056 -0.448,0 -0.873,-0.009 -1.281,-0.024 -0.408,-0.016 -0.807,-0.032 -1.191,-0.048l0 10.2 -6.936 0zm15.912 0l-8.449 -13.032 7.321 0 8.712 13.032 -7.584 0zm-6.769 -15.287c1.873,0 3.249,-0.345 4.129,-1.033 0.88,-0.688 1.32,-1.76 1.32,-3.216 0,-1.504 -0.416,-2.6 -1.257,-3.28 -0.848,-0.681 -2.112,-1.016 -3.808,-1.016 -0.496,0 -0.951,0.016 -1.368,0.048 -0.416,0.032 -0.824,0.08 -1.223,0.144l0 8.28c0.432,0.017 0.807,0.032 1.12,0.048 0.312,0.015 0.671,0.025 1.087,0.025zm12.817 15.287l7.848 -28.56 10.536 0 7.872 28.56 -6.936 0 -6.625 -25.536 0.697 0 -6.552 25.536 -6.84 0zm5.088 -7.128l1.319 -5.544 13.37 0 1.344 5.544 -16.033 0z"/><path fill="#9933CC" fill-rule="nonzero" d="M169.852 44.827l-5.904 -9.576 -4.129 -5.305 -8.735 -13.679 7.753 0 5.135 8.208 4.103 5.424 9.408 14.928 -7.631 0zm-19.584 0l9.551 -14.881 4.153 -5.471 5.088 -8.208 7.633 0 -8.618 13.632 -4.127 5.352 -5.928 9.576 -7.752 0zm33.576 0l-0.023 -22.68 -8.185 0 -0.024 -5.88 23.521 0 0 5.88 -8.232 0 0.024 22.68 -7.081 0zm18.145 0l0 -28.008c1.327,-0.289 2.712,-0.512 4.151,-0.688 1.441,-0.16 2.977,-0.248 4.608,-0.248 4.144,0 7.264,0.792 9.361,2.36 2.096,1.575 3.143,3.945 3.143,7.095 0,2.049 -0.495,3.769 -1.487,5.162 -0.992,1.39 -2.377,2.44 -4.161,3.143 -1.784,0.704 -3.855,1.056 -6.207,1.056 -0.448,0 -0.873,-0.009 -1.281,-0.024 -0.408,-0.016 -0.807,-0.032 -1.191,-0.048l0 10.2 -6.936 0zm15.912 0l-8.449 -13.032 7.321 0 8.712 13.032 -7.584 0zm-6.769 -15.287c1.873,0 3.249,-0.345 4.129,-1.033 0.88,-0.688 1.32,-1.76 1.32,-3.216 0,-1.504 -0.416,-2.6 -1.257,-3.28 -0.848,-0.681 -2.112,-1.016 -3.808,-1.016 -0.496,0 -0.951,0.016 -1.368,0.048 -0.416,0.032 -0.824,0.08 -1.223,0.144l0 8.28c0.432,0.017 0.807,0.032 1.12,0.048 0.312,0.015 0.671,0.025 1.087,0.025zm12.817 15.287l7.848 -28.56 10.536 0 7.872 28.56 -6.936 0 -6.625 -25.536 0.697 0 -6.552 25.536 -6.84 0zm5.088 -7.128l1.319 -5.544 13.37 0 1.344 5.544 -16.033 0z"/></svg>
